<svg width="64" height="65" viewBox="0 0 64 65" fill="none" xmlns="http://www.w3.org/2000/svg">
<path d="M44 24.9541C44 17.3281 39.626 12.9541 32 12.9541C24.374 12.9541 20 17.3281 20 24.9541C12.374 24.9541 8 29.3281 8 36.9541C8 44.5801 12.374 48.9541 20 48.9541V44.9541C14.542 44.9541 12 42.4121 12 36.9541C12 31.4961 14.542 28.9541 20 28.9541H24V24.9541C24 19.4961 26.542 16.9541 32 16.9541C37.458 16.9541 40 19.4961 40 24.9541V28.9541H44C49.458 28.9541 52 31.4961 52 36.9541C52 42.4121 49.458 44.9541 44 44.9541V48.9541C51.626 48.9541 56 44.5801 56 36.9541C56 29.3281 51.626 24.9541 44 24.9541Z" fill="#F7F5F2"/>
<path d="M31 45.1251L25.414 39.5401L22.586 42.3681L31 50.7831L43.414 38.3681L40.586 35.5401L31 45.1251Z" fill="#F7F5F2"/>
</svg>
