<svg width="64" height="64" viewBox="0 0 64 64" fill="none" xmlns="http://www.w3.org/2000/svg">
<path d="M27 27C27.0325 26.5978 26.9771 26.1933 26.8378 25.8146C26.6986 25.4359 26.4786 25.092 26.1933 24.8067C25.908 24.5214 25.5641 24.3014 25.1854 24.1622C24.8067 24.0229 24.4022 23.9675 24 24C23.5978 23.9675 23.1933 24.0229 22.8146 24.1622C22.4359 24.3014 22.092 24.5214 21.8067 24.8067C21.5214 25.092 21.3014 25.4359 21.1622 25.8146C21.0229 26.1933 20.9675 26.5978 21 27C20.9675 27.4022 21.0229 27.8067 21.1622 28.1854C21.3014 28.5641 21.5214 28.908 21.8067 29.1933C22.092 29.4786 22.4359 29.6986 22.8146 29.8378C23.1933 29.9771 23.5978 30.0325 24 30C24.4022 30.0325 24.8067 29.9771 25.1854 29.8378C25.5641 29.6986 25.908 29.4786 26.1933 29.1933C26.4786 28.908 26.6986 28.5641 26.8378 28.1854C26.9771 27.8067 27.0325 27.4022 27 27Z" fill="#F7F5F2"/>
<path d="M40 24C39.5978 23.9675 39.1933 24.0229 38.8146 24.1622C38.4359 24.3014 38.092 24.5214 37.8067 24.8067C37.5214 25.092 37.3014 25.4359 37.1622 25.8146C37.0229 26.1933 36.9675 26.5978 37 27C36.9675 27.4022 37.0229 27.8067 37.1622 28.1854C37.3014 28.5641 37.5214 28.908 37.8067 29.1933C38.092 29.4786 38.4359 29.6986 38.8146 29.8378C39.1933 29.9771 39.5978 30.0325 40 30C40.4022 30.0325 40.8067 29.9771 41.1854 29.8378C41.5641 29.6986 41.908 29.4786 42.1933 29.1933C42.4786 28.908 42.6986 28.5641 42.8378 28.1854C42.9771 27.8067 43.0325 27.4022 43 27C43.0325 26.5978 42.9771 26.1933 42.8378 25.8146C42.6986 25.4359 42.4786 25.092 42.1933 24.8067C41.908 24.5214 41.5641 24.3014 41.1854 24.1622C40.8067 24.0229 40.4022 23.9675 40 24Z" fill="#F7F5F2"/>
<path d="M32 8C16.523 8 8 16.523 8 32C8 47.477 16.523 56 32 56C47.477 56 56 47.477 56 32C56 16.523 47.477 8 32 8ZM32 52C18.729 52 12 45.271 12 32C12 18.729 18.729 12 32 12C45.271 12 52 18.729 52 32C52 45.271 45.271 52 32 52Z" fill="#F7F5F2"/>
<path d="M38 35C38 38.69 34.768 40 32 40C29.232 40 26 38.69 26 35V34H22V35C22 40.3 26.112 44 32 44C37.888 44 42 40.3 42 35V34H38V35Z" fill="#F7F5F2"/>
</svg>
