<svg width="64" height="64" viewBox="0 0 64 64" fill="none" xmlns="http://www.w3.org/2000/svg">
<path d="M25.414 28.586L22.586 31.414L31 39.828L43.414 27.414L40.586 24.586L31 34.172L25.414 28.586Z" fill="#F7F5F2"/>
<path d="M32 7.73999L11 18.793V27.415C10.9866 32.222 12.1971 36.9534 14.5174 41.1633C16.8378 45.3733 20.1916 48.9233 24.263 51.479L32 56.365L39.737 51.478C43.8084 48.9226 47.1623 45.3728 49.4827 41.163C51.8031 36.9531 53.0135 32.2219 53 27.415V18.793L32 7.73999ZM49 27.415C49.0121 31.5471 47.9719 35.6142 45.9775 39.2331C43.983 42.852 41.0999 45.9035 37.6 48.1L32 51.635L26.4 48.1C22.9003 45.9033 20.0174 42.8517 18.0229 39.2329C16.0285 35.614 14.9882 31.547 15 27.415V21.207L32 12.26L49 21.207V27.415Z" fill="#F7F5F2"/>
</svg>
