<svg width="64" height="65" viewBox="0 0 64 65" fill="none" xmlns="http://www.w3.org/2000/svg">
<path d="M44 28.9541V24.9541H40C36.8185 24.9504 33.7684 23.6849 31.5188 21.4353C29.2692 19.1857 28.0037 16.1356 28 12.9541V8.9541H24V12.9541C23.9963 16.1356 22.7308 19.1857 20.4812 21.4353C18.2316 23.6849 15.1815 24.9504 12 24.9541H8V28.9541H12C15.1815 28.9578 18.2316 30.2233 20.4812 32.4729C22.7308 34.7225 23.9963 37.7726 24 40.9541V44.9541H28V40.9541C28.0037 37.7726 29.2692 34.7225 31.5188 32.4729C33.7684 30.2233 36.8185 28.9578 40 28.9541H44ZM26 33.2141C24.5388 30.5838 22.3703 28.4153 19.74 26.9541C22.3703 25.4929 24.5388 23.3244 26 20.6941C27.4612 23.3244 29.6297 25.4929 32.26 26.9541C29.6297 28.4153 27.4612 30.5838 26 33.2141Z" fill="#F7F5F2"/>
<path d="M54.14 44.9541C52.5121 44.9522 50.9515 44.3048 49.8004 43.1537C48.6493 42.0026 48.0019 40.442 48 38.8141V36.9541H44V38.8141C43.9981 40.442 43.3507 42.0026 42.1996 43.1537C41.0485 44.3048 39.4879 44.9522 37.86 44.9541H36V48.9541H37.86C39.4879 48.956 41.0485 49.6034 42.1996 50.7545C43.3507 51.9056 43.9981 53.4662 44 55.0941V56.9541H48V55.0941C48.0019 53.4662 48.6493 51.9056 49.8004 50.7545C50.9515 49.6034 52.5121 48.956 54.14 48.9541H56V44.9541H54.14Z" fill="#F7F5F2"/>
</svg>
